# xmcd
#
# Track frame offsets:
#	150
#	19012
#	38250
#	52875
#	69975
#	85500
#	102675
#	116812
#	135117
#	153150
#	164775
#	180187
#	193987
#	210825
#	225225
#
# Disc length: 3229 seconds
#
# Revision: 1
# Processed by: cddbd v1.5.2PL0 Copyright (c) Steve Scherf et al.
# Submitted via: audiograbber 1.83.01
#
DISCID=ac0c9b0f
DTITLE=Guy Clark - Craftsman [compilation 1995] [CD 1)
DYEAR=1978
DGENRE=Country Rock
TTITLE0=Guy Clark - Fool On The Roof
TTITLE1=Guy Clark - Fools For Each Other
TTITLE2=Guy Clark - Shade Of All Greens
TTITLE3=Guy Clark - Voilà, An American Dream
TTITLE4=Guy Clark - One Paper Kid
TTITLE5=Guy Clark - In The Jailhouse Now
TTITLE6=Guy Clark - Comfort And Crazy
TTITLE7=Guy Clark - Don't You Take It Too Bad
TTITLE8=Guy Clark - The Houston Kid
TTITLE9=Guy Clark - Fool On The Roof Blues
TTITLE10=The South Coast Of Texas - Who Do You Think You Are
TTITLE11=The South Coast Of Texas - Crystelle
TTITLE12=The South Coast Of Texas - New Cut Road
TTITLE13=The South Coast Of Texas - Rita Ballou
TTITLE14=The South Coast Of Texas - South Coast Of Texas
EXTD=
EXTT0=
EXTT1=
EXTT2=
EXTT3=
EXTT4=
EXTT5=
EXTT6=
EXTT7=
EXTT8=
EXTT9=
EXTT10=
EXTT11=
EXTT12=
EXTT13=
EXTT14=
PLAYORDER=
